HIERARCHY
ROOT Hips
{
	OFFSET 0.000000 0.000000 0.000000 
	CHANNELS 6 Xposition Yposition Zposition Zrotation Yrotation Xrotation
	JOINT LeftUpLeg
	{
		OFFSET 1.363060 -1.794630 0.839290 
		CHANNELS 3 Zrotation Yrotation Xrotation
		JOINT LeftLeg
		{
			OFFSET 2.448110 -6.726130 0.000000 
			CHANNELS 3 Zrotation Yrotation Xrotation
			JOINT LeftFoot
			{
				OFFSET 2.562200 -7.039590 0.000000 
				CHANNELS 3 Zrotation Yrotation Xrotation
				JOINT LeftToeBase
				{
					OFFSET 0.157640 -0.433110 2.322550 
					CHANNELS 3 Zrotation Yrotation Xrotation
					End Site
					{
						OFFSET 0.000000 0.000000 0.000000 
					}
				}
			}
		}
	}
	JOINT RightUpLeg
	{
		OFFSET -1.305520 -1.794630 0.839290 
		CHANNELS 3 Zrotation Yrotation Xrotation
		JOINT RightLeg
		{
			OFFSET -2.542530 -6.985550 0.000000 
			CHANNELS 3 Zrotation Yrotation Xrotation
			JOINT RightFoot
			{
				OFFSET -2.568260 -7.056230 0.000000 
				CHANNELS 3 Zrotation Yrotation Xrotation
				JOINT RightToeBase
				{
					OFFSET -0.164730 -0.452590 2.363150 
					CHANNELS 3 Zrotation Yrotation Xrotation
					End Site
					{
						OFFSET 0.000000 0.000000 0.000000 
					}
				}
			}
		}
	}
	JOINT Spine
	{
		OFFSET 0.028270 2.035590 -0.193380 
		CHANNELS 3 Zrotation Yrotation Xrotation
		JOINT Spine1
		{
			OFFSET 0.056720 2.048850 -0.042750 
			CHANNELS 3 Zrotation Yrotation Xrotation
			JOINT Neck1
			{
				OFFSET -0.054170 1.746240 0.172020 
				CHANNELS 3 Zrotation Yrotation Xrotation
				JOINT Head
				{
					OFFSET 0.104070 1.761360 -0.123970 
					CHANNELS 3 Zrotation Yrotation Xrotation
					End Site
					{
						OFFSET 0.000000 0.000000 0.000000 
					}
				}
			}
			JOINT LeftArm
			{
				OFFSET 3.362410 1.200890 -0.311210 
				CHANNELS 3 Zrotation Yrotation Xrotation
				JOINT LeftForeArm
				{
					OFFSET 4.983000 -0.000000 -0.000000 
					CHANNELS 3 Zrotation Yrotation Xrotation
					JOINT LeftHand
					{
						OFFSET 3.483560 -0.000000 -0.000000 
						CHANNELS 3 Zrotation Yrotation Xrotation
						JOINT LeftHandIndex1
						{
							OFFSET 0.715260 -0.000000 -0.000000 
							CHANNELS 3 Zrotation Yrotation Xrotation
							End Site
							{
								OFFSET 0.000000 0.000000 0.000000 
							}
						}
					}
				}
			}
			JOINT RightArm
			{
				OFFSET -3.136600 1.374050 -0.404650 
				CHANNELS 3 Zrotation Yrotation Xrotation
				JOINT RightForeArm
				{
					OFFSET -5.241900 -0.000000 -0.000000 
					CHANNELS 3 Zrotation Yrotation Xrotation
					JOINT RightHand
					{
						OFFSET -3.444170 -0.000000 -0.000000 
						CHANNELS 3 Zrotation Yrotation Xrotation
						JOINT RightHandIndex1
						{
							OFFSET -0.622530 -0.000000 -0.000000 
							CHANNELS 3 Zrotation Yrotation Xrotation
							End Site
							{
								OFFSET 0.000000 0.000000 0.000000 
							}
						}
					}
				}
			}
		}
	}
}
MOTION
Frames: 10
Frame Time: 0.041667
-29.187656 5.946222 -0.324574 63.904066 -79.306974 130.051608 -62.722376 43.560419 131.233398 44.054541 21.681623 122.331644 -16.582958 39.165336 -136.793362 0.043000 1.338700 3.681300 14.990782 2.983321 -90.663276 -153.156729 -17.554545 -1.685453 165.202614 -8.953608 101.843689 -0.674600 -5.252100 14.629000 -97.020502 78.789516 100.576471 -60.874883 18.959513 -56.844546 139.018433 48.266805 85.941890 -3.346200 1.903700 14.064800 136.193456 -50.483807 -53.846289 -61.729108 -60.037280 121.271409 74.957328 -42.559856 -67.165730 -7.125000 0.000000 0.000000 -148.665334 49.214432 25.381173 29.546947 -58.761660 -72.443222 -82.651952 -28.656027 -13.226485 7.125000 0.000000 0.000000 
-29.141399 5.918571 -0.210353 -22.933360 88.861394 40.776408 2.182137 33.631721 103.275538 -33.205732 0.625161 71.848853 59.009126 36.352529 48.043990 0.048400 1.419800 3.904600 133.036801 56.823881 -149.813117 21.741320 -12.137546 -0.196580 -67.489610 -57.928895 -40.413179 -0.658000 -5.188100 14.445900 -78.229548 38.128395 -97.114657 170.315541 -13.854381 66.829505 -106.318710 -30.266835 -82.426165 -3.339500 1.939200 14.107500 137.944033 -85.859949 43.180421 28.892926 -63.743912 150.714358 84.385077 -31.534806 -35.285553 -7.125000 0.000000 0.000000 -166.312163 22.496755 158.676763 -92.437190 87.576935 106.104999 -1.500949 -23.484258 -15.047317 7.125000 0.000000 0.000000 
-29.093591 5.890921 -0.096649 12.482434 -56.313735 87.934096 85.862430 -63.261761 -150.971256 6.914143 -3.807630 -87.275441 45.372237 52.287137 -13.083434 0.050000 1.443300 3.969400 -117.216640 56.145312 -175.213525 162.077220 -14.101104 -110.230832 -106.415119 -37.107936 171.028516 -0.641000 -5.121900 14.256500 -31.941015 -12.760312 82.956365 55.232543 41.154902 -136.698064 164.251787 -74.308517 -126.710784 -3.369100 1.917000 14.078800 -3.309943 -39.032557 42.739024 -136.703687 45.494217 -141.257610 -135.394777 -68.382658 172.532623 -7.125000 0.000000 0.000000 123.279990 24.513805 -90.634424 179.020189 9.816903 124.242422 -73.724197 10.553228 6.448002 7.125000 0.000000 0.000000 
-29.048626 5.861461 -0.024550 -4.648179 -81.302595 -173.668190 -169.555858 -12.092237 85.306828 53.776408 66.497626 -142.206713 172.700382 -40.132576 28.064298 0.051900 1.470600 4.044800 67.529862 9.274356 68.497718 -157.297735 -79.837860 107.782679 66.356443 -82.203715 160.021918 -0.634700 -5.097300 14.186200 122.776815 57.939770 -137.790897 85.588973 -8.230458 79.086795 -154.976548 -11.723548 17.489044 -3.377700 1.888900 14.045300 176.617243 78.093232 -159.312132 -93.014009 -58.365041 179.894579 -50.133041 -8.121065 -57.103721 -7.125000 0.000000 0.000000 -161.703072 -89.343105 -113.857484 50.056181 55.528447 -80.309775 -9.587091 27.394462 -17.365394 7.125000 0.000000 0.000000 
-28.426095 5.943380 1.224131 111.580668 -38.664972 117.791255 149.944913 -16.342109 18.455232 5.570982 59.836316 54.772420 -54.890612 -6.047750 6.185833 0.049800 1.440100 3.960800 90.791134 -17.071617 -4.180157 23.093427 38.695924 -10.395582 32.928698 -45.667960 -128.903620 -0.541600 -4.715200 13.098100 -176.756401 63.022789 -150.717512 32.585252 -9.328968 41.556180 69.053509 -44.733032 34.835557 -3.410200 1.795000 13.933900 12.559200 -86.116348 -134.833275 -114.013115 62.928516 162.930640 73.473924 -72.633327 -38.559774 -7.125000 0.000000 0.000000 75.204127 -47.579801 -96.448504 102.141939 -26.100177 124.326668 -28.892294 38.871647 6.318267 7.125000 0.000000 0.000000 
-28.056297 5.975682 1.855190 8.669859 -64.154879 -149.040591 -35.541053 -18.296265 -73.379155 -86.565038 52.928467 111.148570 66.054353 -28.103135 6.014756 0.052400 1.476800 4.061800 14.768806 66.173519 -152.908108 72.205174 0.893977 164.846503 -153.407862 -69.497025 -165.198142 -0.428100 -4.198800 11.636800 10.652274 70.183248 45.519835 -31.706180 33.766231 -16.479451 42.955779 -23.893479 13.293012 -3.441600 1.744200 13.883100 59.524855 1.137017 -70.265851 61.560369 16.299979 -112.192483 -104.913697 -64.144504 -23.997181 -7.125000 0.000000 0.000000 61.274673 30.576603 -159.799346 -148.138706 83.301333 109.769253 -30.175273 29.449281 -3.658179 7.125000 0.000000 0.000000 
-28.002804 5.965862 1.876639 1.659605 34.147884 -95.888388 -58.969150 66.220708 -162.674693 -60.816531 73.866183 -33.742700 75.542023 -81.248587 2.082281 0.052400 1.476700 4.061500 98.174772 -0.748144 -168.820773 80.282129 -42.483424 -97.092281 77.479031 -37.644840 30.576446 -0.289800 -3.462000 9.567900 -169.735242 -75.592045 -110.210340 99.477045 -41.139465 23.158812 123.066556 70.304268 -140.182384 -3.480300 1.723500 13.882000 -64.465014 28.209204 -152.104529 -137.994011 -30.179335 -7.171553 27.614749 20.481212 -51.081286 -7.125000 0.000000 0.000000 138.468137 -77.060647 -7.440100 -148.791991 -34.474108 -78.231142 -24.661372 -37.246636 -11.952886 7.125000 0.000000 0.000000 
-27.959907 5.959402 1.878448 16.844428 -4.412194 -168.590901 108.939566 -47.397290 140.046928 -20.390064 -0.817800 90.531313 8.405521 6.497685 128.784881 0.053700 1.494900 4.111700 -65.256564 -80.823645 63.383719 85.694765 76.456758 109.808865 96.371839 -60.616514 -149.566501 -0.175000 -2.694600 7.429700 150.780755 87.701966 157.399644 50.884741 -77.092703 -110.430835 -1.817396 18.221131 149.860273 -3.485800 1.781100 13.942500 14.986487 9.784202 -69.820678 69.732285 26.801802 12.328057 -57.667163 16.743065 -58.845769 -7.125000 0.000000 0.000000 -166.718623 71.874634 -142.302750 -14.413486 -3.622629 -41.543352 -65.306608 -11.556534 -6.023911 7.125000 0.000000 0.000000 
-27.936908 5.967671 1.884392 -142.875146 75.883751 -102.388266 9.726688 10.158462 -166.631883 -17.187407 -9.613254 163.875186 -139.154505 -40.977962 -88.418597 0.056200 1.529900 4.208300 7.113510 -10.562282 -81.260149 -90.115701 10.255044 -111.309579 178.437063 24.290432 -56.990315 -0.092500 -1.961500 5.399300 -39.296605 5.122406 62.610213 131.452582 1.102024 29.234563 88.481085 -44.245191 -112.132782 -3.496100 1.802100 13.952400 -80.451753 -39.883062 123.774342 -21.268219 32.322514 -0.180247 35.138489 -54.553326 -64.963257 -7.125000 0.000000 0.000000 -156.730653 -84.593863 -178.504246 144.203618 -31.333735 118.567955 32.591961 -17.241606 -9.026237 7.125000 0.000000 0.000000 
-27.925796 5.969738 1.885167 151.685718 -36.581560 115.097027 -74.746991 53.927326 -100.257833 148.323173 74.985681 120.703584 -69.743800 30.757092 139.214060 0.059100 1.568500 4.314600 -163.749725 79.574857 153.504273 -21.473685 -14.273925 83.302625 126.806220 29.556629 -172.275447 -0.042600 -1.332300 3.663700 99.245811 28.164088 -167.480008 -177.195597 -24.888990 -129.267555 102.676306 -15.113577 153.406478 -3.480700 1.731700 13.879600 -50.032488 -81.321818 7.733642 88.432981 34.060518 161.469284 71.501057 34.348192 50.115885 -7.125000 0.000000 0.000000 -65.857091 -83.621077 16.370294 80.339177 89.857958 -84.566731 12.697816 -82.566790 10.068163 7.125000 0.000000 0.000000 
